# xmcd CD database file
#
# Track frame offsets:
#	150
#	18212
#	32350
#	47827
#	63422
#	79685
#	97472
#	114445
#	126260
#	143892
#	158082
#	171155
#	189730
#	204567
#	220287
#	239075
#	260830
#	283487
#	299490
#	315525
#	330517
#
# Disc length: 4589 seconds
#
# Revision: 15
# Processed by: cddbd v1.4PL0 Copyright (c) Steve Scherf et al.
# Submitted via: jetAudio 5
#
DISCID=4a11eb15
DTITLE=Various Artist - Pure Disco 2
DYEAR=1997
DGENRE=
TTITLE0=I Will Survive - Remix
TTITLE1=(Shake, Shake, Shake) Shake Your Booty
TTITLE2=Turn The Beat Around
TTITLE3=Macho Man
TTITLE4=We Are Family
TTITLE5=What A Feeling
TTITLE6=I Just Want To Be Your Everything
TTITLE7=Everlasting Love
TTITLE8=Can't Get Enough Of Your Love, Babe
TTITLE9=Rock The Boat
TTITLE10=Love Rollercoaster
TTITLE11=Upside Down
TTITLE12=Play That Funky Music
TTITLE13=The Hustle
TTITLE14=Love's Theme
TTITLE15=Gimmie! Gimmie! Gimmie! (A Man After Midnight)
TTITLE16=Fly, Robin, Fly
TTITLE17=Ring My Bell
TTITLE18=It's Raining Men
TTITLE19=Last Dance
TTITLE20=Various Artist - The Diva Megamix
EXTD=YEAR: 1997 GENRE: Disco
EXTT0=
EXTT1=
EXTT2=
EXTT3=
EXTT4=
EXTT5=
EXTT6=
EXTT7=
EXTT8=
EXTT9=
EXTT10=
EXTT11=
EXTT12=
EXTT13=
EXTT14=
EXTT15=
EXTT16=
EXTT17=
EXTT18=
EXTT19=
EXTT20=
PLAYORDER=
